<svg fill="#000000" xmlns="http://www.w3.org/2000/svg" viewBox="0 0 80 80" width="80px" height="80px"><path d="M 14 10 C 11.800781 10 10 11.800781 10 14 L 10 66 C 10 68.199219 11.800781 70 14 70 L 66 70 C 68.199219 70 70 68.199219 70 66 L 70 37 L 68 37 L 68 66 C 68 67.117188 67.117188 68 66 68 L 14 68 C 12.882813 68 12 67.117188 12 66 L 12 14 C 12 12.882813 12.882813 12 14 12 L 43 12 L 43 10 Z M 51 10 L 51 12 L 66.585938 12 L 61.300781 17.28125 L 36.792969 41.792969 L 38.207031 43.207031 L 62.699219 18.71875 L 68 13.414063 L 68 29 L 70 29 L 70 10 Z M 18 17 C 17.449219 17 17 17.449219 17 18 C 17 18.550781 17.449219 19 18 19 C 18.550781 19 19 18.550781 19 18 C 19 17.449219 18.550781 17 18 17 Z M 22 17 C 21.449219 17 21 17.449219 21 18 C 21 18.550781 21.449219 19 22 19 C 22.550781 19 23 18.550781 23 18 C 23 17.449219 22.550781 17 22 17 Z M 26 17 C 25.449219 17 25 17.449219 25 18 C 25 18.550781 25.449219 19 26 19 C 26.550781 19 27 18.550781 27 18 C 27 17.449219 26.550781 17 26 17 Z M 30 17 C 29.449219 17 29 17.449219 29 18 C 29 18.550781 29.449219 19 30 19 C 30.550781 19 31 18.550781 31 18 C 31 17.449219 30.550781 17 30 17 Z M 34 17 C 33.449219 17 33 17.449219 33 18 C 33 18.550781 33.449219 19 34 19 C 34.550781 19 35 18.550781 35 18 C 35 17.449219 34.550781 17 34 17 Z M 38 17 C 37.449219 17 37 17.449219 37 18 C 37 18.550781 37.449219 19 38 19 C 38.550781 19 39 18.550781 39 18 C 39 17.449219 38.550781 17 38 17 Z M 42 17 C 41.449219 17 41 17.449219 41 18 C 41 18.550781 41.449219 19 42 19 C 42.550781 19 43 18.550781 43 18 C 43 17.449219 42.550781 17 42 17 Z M 18 21 C 17.449219 21 17 21.449219 17 22 C 17 22.550781 17.449219 23 18 23 C 18.550781 23 19 22.550781 19 22 C 19 21.449219 18.550781 21 18 21 Z M 18 25 C 17.449219 25 17 25.449219 17 26 C 17 26.550781 17.449219 27 18 27 C 18.550781 27 19 26.550781 19 26 C 19 25.449219 18.550781 25 18 25 Z M 18 29 C 17.449219 29 17 29.449219 17 30 C 17 30.550781 17.449219 31 18 31 C 18.550781 31 19 30.550781 19 30 C 19 29.449219 18.550781 29 18 29 Z M 18 33 C 17.449219 33 17 33.449219 17 34 C 17 34.550781 17.449219 35 18 35 C 18.550781 35 19 34.550781 19 34 C 19 33.449219 18.550781 33 18 33 Z M 18 37 C 17.449219 37 17 37.449219 17 38 C 17 38.550781 17.449219 39 18 39 C 18.550781 39 19 38.550781 19 38 C 19 37.449219 18.550781 37 18 37 Z M 62 37 C 61.449219 37 61 37.449219 61 38 C 61 38.550781 61.449219 39 62 39 C 62.550781 39 63 38.550781 63 38 C 63 37.449219 62.550781 37 62 37 Z M 18 41 C 17.449219 41 17 41.449219 17 42 C 17 42.550781 17.449219 43 18 43 C 18.550781 43 19 42.550781 19 42 C 19 41.449219 18.550781 41 18 41 Z M 62 41 C 61.449219 41 61 41.449219 61 42 C 61 42.550781 61.449219 43 62 43 C 62.550781 43 63 42.550781 63 42 C 63 41.449219 62.550781 41 62 41 Z M 18 45 C 17.449219 45 17 45.449219 17 46 C 17 46.550781 17.449219 47 18 47 C 18.550781 47 19 46.550781 19 46 C 19 45.449219 18.550781 45 18 45 Z M 62 45 C 61.449219 45 61 45.449219 61 46 C 61 46.550781 61.449219 47 62 47 C 62.550781 47 63 46.550781 63 46 C 63 45.449219 62.550781 45 62 45 Z M 18 49 C 17.449219 49 17 49.449219 17 50 C 17 50.550781 17.449219 51 18 51 C 18.550781 51 19 50.550781 19 50 C 19 49.449219 18.550781 49 18 49 Z M 62 49 C 61.449219 49 61 49.449219 61 50 C 61 50.550781 61.449219 51 62 51 C 62.550781 51 63 50.550781 63 50 C 63 49.449219 62.550781 49 62 49 Z M 18 53 C 17.449219 53 17 53.449219 17 54 C 17 54.550781 17.449219 55 18 55 C 18.550781 55 19 54.550781 19 54 C 19 53.449219 18.550781 53 18 53 Z M 62 53 C 61.449219 53 61 53.449219 61 54 C 61 54.550781 61.449219 55 62 55 C 62.550781 55 63 54.550781 63 54 C 63 53.449219 62.550781 53 62 53 Z M 18 57 C 17.449219 57 17 57.449219 17 58 C 17 58.550781 17.449219 59 18 59 C 18.550781 59 19 58.550781 19 58 C 19 57.449219 18.550781 57 18 57 Z M 62 57 C 61.449219 57 61 57.449219 61 58 C 61 58.550781 61.449219 59 62 59 C 62.550781 59 63 58.550781 63 58 C 63 57.449219 62.550781 57 62 57 Z M 18 61 C 17.449219 61 17 61.449219 17 62 C 17 62.550781 17.449219 63 18 63 C 18.550781 63 19 62.550781 19 62 C 19 61.449219 18.550781 61 18 61 Z M 22 61 C 21.449219 61 21 61.449219 21 62 C 21 62.550781 21.449219 63 22 63 C 22.550781 63 23 62.550781 23 62 C 23 61.449219 22.550781 61 22 61 Z M 26 61 C 25.449219 61 25 61.449219 25 62 C 25 62.550781 25.449219 63 26 63 C 26.550781 63 27 62.550781 27 62 C 27 61.449219 26.550781 61 26 61 Z M 30 61 C 29.449219 61 29 61.449219 29 62 C 29 62.550781 29.449219 63 30 63 C 30.550781 63 31 62.550781 31 62 C 31 61.449219 30.550781 61 30 61 Z M 34 61 C 33.449219 61 33 61.449219 33 62 C 33 62.550781 33.449219 63 34 63 C 34.550781 63 35 62.550781 35 62 C 35 61.449219 34.550781 61 34 61 Z M 38 61 C 37.449219 61 37 61.449219 37 62 C 37 62.550781 37.449219 63 38 63 C 38.550781 63 39 62.550781 39 62 C 39 61.449219 38.550781 61 38 61 Z M 42 61 C 41.449219 61 41 61.449219 41 62 C 41 62.550781 41.449219 63 42 63 C 42.550781 63 43 62.550781 43 62 C 43 61.449219 42.550781 61 42 61 Z M 46 61 C 45.449219 61 45 61.449219 45 62 C 45 62.550781 45.449219 63 46 63 C 46.550781 63 47 62.550781 47 62 C 47 61.449219 46.550781 61 46 61 Z M 50 61 C 49.449219 61 49 61.449219 49 62 C 49 62.550781 49.449219 63 50 63 C 50.550781 63 51 62.550781 51 62 C 51 61.449219 50.550781 61 50 61 Z M 54 61 C 53.449219 61 53 61.449219 53 62 C 53 62.550781 53.449219 63 54 63 C 54.550781 63 55 62.550781 55 62 C 55 61.449219 54.550781 61 54 61 Z M 58 61 C 57.449219 61 57 61.449219 57 62 C 57 62.550781 57.449219 63 58 63 C 58.550781 63 59 62.550781 59 62 C 59 61.449219 58.550781 61 58 61 Z M 62 61 C 61.449219 61 61 61.449219 61 62 C 61 62.550781 61.449219 63 62 63 C 62.550781 63 63 62.550781 63 62 C 63 61.449219 62.550781 61 62 61 Z"/></svg>